<svg xmlns="http://www.w3.org/2000/svg" xmlns:xlink="http://www.w3.org/1999/xlink" width="48" zoomAndPan="magnify" viewBox="0 0 36 36.000001" height="48" preserveAspectRatio="xMidYMid meet" version="1.0"><defs><clipPath id="8b3feb897e"><path d="M 0.488281 9 L 9 9 L 9 26 L 0.488281 26 Z M 0.488281 9 " clip-rule="nonzero"/></clipPath></defs><path fill="#4280ef" d="M 34.945312 17.773438 C 34.945312 16.597656 34.832031 15.382812 34.640625 14.246094 L 18.210938 14.246094 L 18.210938 20.960938 L 27.621094 20.960938 C 27.242188 23.125 25.988281 25.023438 24.128906 26.238281 L 29.746094 30.601562 C 33.046875 27.527344 34.945312 23.050781 34.945312 17.773438 Z M 34.945312 17.773438 " fill-opacity="1" fill-rule="nonzero"/><path fill="#34a353" d="M 18.210938 34.773438 C 22.917969 34.773438 26.863281 33.21875 29.746094 30.5625 L 24.128906 26.238281 C 22.574219 27.300781 20.5625 27.90625 18.210938 27.90625 C 13.65625 27.90625 9.824219 24.832031 8.421875 20.734375 L 2.652344 25.175781 C 5.613281 31.054688 11.609375 34.773438 18.210938 34.773438 Z M 18.210938 34.773438 " fill-opacity="1" fill-rule="nonzero"/><g clip-path="url(#8b3feb897e)"><path fill="#f6b704" d="M 8.421875 20.695312 C 7.699219 18.535156 7.699219 16.179688 8.421875 14.019531 L 2.652344 9.539062 C 0.1875 14.472656 0.1875 20.277344 2.652344 25.175781 Z M 8.421875 20.695312 " fill-opacity="1" fill-rule="nonzero"/></g><path fill="#e54335" d="M 18.210938 6.847656 C 20.675781 6.808594 23.105469 7.757812 24.890625 9.464844 L 29.859375 4.457031 C 26.710938 1.496094 22.535156 -0.0976562 18.210938 -0.0585938 C 11.609375 -0.0585938 5.613281 3.660156 2.652344 9.539062 L 8.421875 14.019531 C 9.824219 9.882812 13.65625 6.847656 18.210938 6.847656 Z M 18.210938 6.847656 " fill-opacity="1" fill-rule="nonzero"/></svg>