<svg xmlns="http://www.w3.org/2000/svg" xmlns:xlink="http://www.w3.org/1999/xlink" width="500" zoomAndPan="magnify" viewBox="0 0 375 119.999999" height="160" preserveAspectRatio="xMidYMid meet" version="1.0"><defs><g/><clipPath id="f676414542"><path d="M 0.816406 0.816406 L 134.203125 0.816406 L 134.203125 115.546875 L 0.816406 115.546875 Z M 0.816406 0.816406 " clip-rule="nonzero"/></clipPath><clipPath id="ab29052de0"><path d="M 108.824219 32.351562 C 103.113281 32.351562 100.257812 29.667969 100.257812 24.300781 C 100.257812 18.929688 103.113281 16.246094 108.824219 16.246094 C 114.53125 16.246094 117.390625 18.933594 117.390625 24.300781 C 117.390625 29.664062 114.53125 32.351562 108.824219 32.351562 M 117.390625 84.082031 C 117.390625 90.445312 113.1875 99.5 102.105469 99.5 L 96.609375 99.5 C 95.28125 99.5 94.636719 98.46875 94.636719 97.523438 L 94.636719 83.390625 C 94.636719 83.390625 97.050781 84.292969 98.625 83.1875 L 98.878906 82.960938 C 99.011719 82.839844 99.140625 82.71875 99.253906 82.5625 C 100.207031 81.3125 100.261719 79.75 100.261719 79.75 L 100.261719 41.839844 C 100.261719 40.820312 101.089844 39.992188 102.109375 39.992188 L 115.542969 39.992188 C 116.5625 39.992188 117.390625 40.820312 117.390625 41.839844 Z M 92.964844 53.8125 C 92.964844 54.695312 92.25 55.410156 91.367188 55.410156 L 76.917969 55.410156 L 76.917969 97.652344 C 76.917969 98.671875 76.089844 99.5 75.066406 99.5 L 61.632812 99.5 C 60.613281 99.5 59.785156 98.671875 59.785156 97.652344 L 59.785156 55.410156 L 45.332031 55.410156 C 44.453125 55.410156 43.738281 54.695312 43.738281 53.8125 L 43.738281 41.585938 C 43.738281 40.707031 44.449219 39.992188 45.332031 39.992188 L 91.367188 39.992188 C 92.25 39.992188 92.964844 40.703125 92.964844 41.585938 Z M 40.78125 97.523438 C 40.78125 98.613281 39.894531 99.5 38.804688 99.5 L 21.214844 99.5 C 20.195312 99.5 19.367188 98.671875 19.367188 97.648438 L 19.367188 41.839844 C 19.367188 40.820312 20.195312 39.992188 21.214844 39.992188 L 34.648438 39.992188 C 35.671875 39.992188 36.5 40.820312 36.5 41.839844 L 36.5 84.082031 L 38.804688 84.082031 C 39.894531 84.082031 40.78125 84.964844 40.78125 86.054688 Z M 27.613281 16.246094 C 33.320312 16.246094 36.175781 18.933594 36.175781 24.300781 C 36.175781 29.664062 33.320312 32.351562 27.613281 32.351562 C 21.902344 32.351562 19.046875 29.667969 19.046875 24.300781 C 19.046875 18.929688 21.902344 16.246094 27.613281 16.246094 M 120.035156 0.816406 L 14.980469 0.816406 C 7.160156 0.816406 0.816406 7.160156 0.816406 14.980469 L 0.816406 101.289062 C 0.816406 109.109375 7.160156 115.449219 14.980469 115.449219 L 120.035156 115.449219 C 127.855469 115.449219 134.195312 109.109375 134.195312 101.289062 L 134.195312 14.980469 C 134.199219 7.160156 127.859375 0.816406 120.035156 0.816406 " clip-rule="nonzero"/></clipPath><clipPath id="452b905cb4"><path d="M 128.804688 113 L 135 113 L 135 119.308594 L 128.804688 119.308594 Z M 128.804688 113 " clip-rule="nonzero"/></clipPath><clipPath id="9bdc2fe913"><path d="M 131.945312 118.875 C 130.429688 118.875 129.199219 117.644531 129.199219 116.132812 C 129.199219 114.617188 130.429688 113.386719 131.945312 113.386719 C 133.457031 113.386719 134.6875 114.621094 134.6875 116.132812 C 134.6875 117.644531 133.457031 118.875 131.945312 118.875 M 131.945312 113.082031 C 130.261719 113.082031 128.894531 114.449219 128.894531 116.132812 C 128.894531 117.8125 130.261719 119.183594 131.945312 119.183594 C 133.625 119.183594 134.996094 117.8125 134.996094 116.132812 C 134.996094 114.449219 133.625 113.082031 131.945312 113.082031 " clip-rule="nonzero"/></clipPath><clipPath id="11ca9c078f"><path d="M 130.113281 115.054688 L 131.75 115.054688 L 131.75 117.183594 L 130.113281 117.183594 Z M 130.113281 115.054688 " clip-rule="nonzero"/></clipPath><clipPath id="df063438c4"><path d="M 131.488281 115.214844 L 130.265625 115.214844 C 130.183594 115.214844 130.113281 115.285156 130.113281 115.367188 L 130.183594 115.519531 L 130.722656 115.519531 L 130.722656 116.894531 C 130.722656 116.976562 130.792969 117.046875 130.875 117.046875 L 131.027344 116.976562 L 131.027344 115.519531 L 131.488281 115.519531 C 131.570312 115.519531 131.640625 115.449219 131.640625 115.367188 L 131.570312 115.214844 " clip-rule="nonzero"/></clipPath><clipPath id="cac8d315b2"><path d="M 131.914062 115.054688 L 133.550781 115.054688 L 133.550781 117.183594 L 131.914062 117.183594 Z M 131.914062 115.054688 " clip-rule="nonzero"/></clipPath><clipPath id="d5cfb93f76"><path d="M 133.375 115.230469 L 133.253906 115.21875 L 132.707031 115.765625 L 132.207031 115.261719 C 132.160156 115.21875 132.09375 115.203125 132.039062 115.230469 L 131.945312 115.308594 L 131.945312 116.894531 C 131.945312 116.980469 132.011719 117.046875 132.09375 117.046875 L 132.246094 116.976562 L 132.246094 115.738281 L 132.597656 116.085938 C 132.65625 116.148438 132.753906 116.148438 132.8125 116.085938 L 133.164062 115.738281 L 133.164062 116.894531 C 133.164062 116.980469 133.234375 117.046875 133.316406 117.046875 L 133.46875 116.976562 L 133.46875 115.371094 C 133.46875 115.308594 133.429688 115.25 133.375 115.230469 " clip-rule="nonzero"/></clipPath></defs><g clip-path="url(#f676414542)"><g clip-path="url(#ab29052de0)"><path fill="#04a491" d="M 0 0 L 135.839844 0 L 135.839844 119.964844 L 0 119.964844 Z M 0 0 " fill-opacity="1" fill-rule="nonzero"/></g></g><g clip-path="url(#452b905cb4)"><g clip-path="url(#9bdc2fe913)"><path fill="#04a491" d="M 0 0 L 135.839844 0 L 135.839844 119.964844 L 0 119.964844 Z M 0 0 " fill-opacity="1" fill-rule="nonzero"/></g></g><g clip-path="url(#11ca9c078f)"><g clip-path="url(#df063438c4)"><path fill="#04a491" d="M 0 0 L 135.839844 0 L 135.839844 119.964844 L 0 119.964844 Z M 0 0 " fill-opacity="1" fill-rule="nonzero"/></g></g><g clip-path="url(#cac8d315b2)"><g clip-path="url(#d5cfb93f76)"><path fill="#04a491" d="M 0 0 L 135.839844 0 L 135.839844 119.964844 L 0 119.964844 Z M 0 0 " fill-opacity="1" fill-rule="nonzero"/></g></g><g fill="#04a491" fill-opacity="1"><g transform="translate(136.480513, 91.549985)"><g><path d="M 4.296875 0 L 4.296875 -49.453125 L 14.75 -49.453125 L 14.75 -8.625 L 35.953125 -8.625 L 35.953125 0 Z M 4.296875 0 "/></g></g></g><g fill="#04a491" fill-opacity="1"><g transform="translate(175.064037, 91.549985)"><g><path d="M 4.109375 0 L 4.109375 -37.09375 L 14.390625 -37.09375 L 14.390625 0 Z M 9.28125 -41.875 C 7.757812 -41.875 6.453125 -42.382812 5.359375 -43.40625 C 4.265625 -44.425781 3.71875 -45.65625 3.71875 -47.09375 C 3.71875 -48.519531 4.265625 -49.738281 5.359375 -50.75 C 6.453125 -51.769531 7.757812 -52.28125 9.28125 -52.28125 C 10.800781 -52.28125 12.109375 -51.769531 13.203125 -50.75 C 14.304688 -49.738281 14.859375 -48.519531 14.859375 -47.09375 C 14.859375 -45.65625 14.304688 -44.425781 13.203125 -43.40625 C 12.109375 -42.382812 10.800781 -41.875 9.28125 -41.875 Z M 9.28125 -41.875 "/></g></g></g><g fill="#04a491" fill-opacity="1"><g transform="translate(193.559016, 91.549985)"><g><path d="M 4.296875 0 L 4.296875 -49.453125 L 14.578125 -49.453125 L 14.578125 -30.859375 L 14.90625 -30.859375 C 15.363281 -31.867188 16.019531 -32.890625 16.875 -33.921875 C 17.726562 -34.953125 18.851562 -35.816406 20.25 -36.515625 C 21.65625 -37.222656 23.390625 -37.578125 25.453125 -37.578125 C 28.171875 -37.578125 30.664062 -36.867188 32.9375 -35.453125 C 35.207031 -34.046875 37.03125 -31.929688 38.40625 -29.109375 C 39.78125 -26.285156 40.46875 -22.75 40.46875 -18.5 C 40.46875 -14.363281 39.800781 -10.875 38.46875 -8.03125 C 37.132812 -5.1875 35.332031 -3.035156 33.0625 -1.578125 C 30.789062 -0.117188 28.242188 0.609375 25.421875 0.609375 C 23.429688 0.609375 21.738281 0.28125 20.34375 -0.375 C 18.945312 -1.039062 17.8125 -1.875 16.9375 -2.875 C 16.0625 -3.882812 15.382812 -4.90625 14.90625 -5.9375 L 14.4375 -5.9375 L 14.4375 0 Z M 14.375 -18.546875 C 14.375 -15.242188 15.050781 -12.585938 16.40625 -10.578125 C 17.769531 -8.578125 19.691406 -7.578125 22.171875 -7.578125 C 24.691406 -7.578125 26.617188 -8.59375 27.953125 -10.625 C 29.296875 -12.664062 29.96875 -15.304688 29.96875 -18.546875 C 29.96875 -21.765625 29.300781 -24.375 27.96875 -26.375 C 26.644531 -28.382812 24.710938 -29.390625 22.171875 -29.390625 C 19.671875 -29.390625 17.742188 -28.410156 16.390625 -26.453125 C 15.046875 -24.492188 14.375 -21.859375 14.375 -18.546875 Z M 14.375 -18.546875 "/></g></g></g><g fill="#04a491" fill-opacity="1"><g transform="translate(236.754223, 91.549985)"><g><path d="M 4.109375 0 L 4.109375 -37.09375 L 14.078125 -37.09375 L 14.078125 -30.625 L 14.46875 -30.625 C 15.144531 -32.925781 16.273438 -34.664062 17.859375 -35.84375 C 19.441406 -37.03125 21.28125 -37.625 23.375 -37.625 C 24.375 -37.625 25.300781 -37.5 26.15625 -37.25 C 27.007812 -37.007812 27.773438 -36.679688 28.453125 -36.265625 L 25.359375 -27.765625 C 24.867188 -28.003906 24.335938 -28.207031 23.765625 -28.375 C 23.203125 -28.550781 22.566406 -28.640625 21.859375 -28.640625 C 19.773438 -28.640625 18.015625 -27.929688 16.578125 -26.515625 C 15.140625 -25.097656 14.410156 -23.253906 14.390625 -20.984375 L 14.390625 0 Z M 4.109375 0 "/></g></g></g><g fill="#04a491" fill-opacity="1"><g transform="translate(265.897105, 91.549985)"><g><path d="M 14.6875 0.703125 C 11.144531 0.703125 8.203125 -0.222656 5.859375 -2.078125 C 3.523438 -3.929688 2.359375 -6.691406 2.359375 -10.359375 C 2.359375 -13.128906 3.007812 -15.300781 4.3125 -16.875 C 5.625 -18.457031 7.335938 -19.613281 9.453125 -20.34375 C 11.566406 -21.070312 13.847656 -21.550781 16.296875 -21.78125 C 19.515625 -22.101562 21.816406 -22.441406 23.203125 -22.796875 C 24.585938 -23.148438 25.28125 -23.921875 25.28125 -25.109375 L 25.28125 -25.265625 C 25.28125 -26.785156 24.800781 -27.960938 23.84375 -28.796875 C 22.882812 -29.640625 21.53125 -30.0625 19.78125 -30.0625 C 17.925781 -30.0625 16.453125 -29.660156 15.359375 -28.859375 C 14.265625 -28.054688 13.539062 -27.035156 13.1875 -25.796875 L 3.671875 -26.5625 C 4.378906 -29.945312 6.132812 -32.628906 8.9375 -34.609375 C 11.75 -36.585938 15.378906 -37.578125 19.828125 -37.578125 C 22.578125 -37.578125 25.148438 -37.140625 27.546875 -36.265625 C 29.953125 -35.398438 31.890625 -34.046875 33.359375 -32.203125 C 34.828125 -30.359375 35.5625 -27.960938 35.5625 -25.015625 L 35.5625 0 L 25.8125 0 L 25.8125 -5.140625 L 25.53125 -5.140625 C 24.625 -3.421875 23.269531 -2.015625 21.46875 -0.921875 C 19.675781 0.160156 17.414062 0.703125 14.6875 0.703125 Z M 17.625 -6.40625 C 19.882812 -6.40625 21.738281 -7.054688 23.1875 -8.359375 C 24.632812 -9.671875 25.359375 -11.300781 25.359375 -13.25 L 25.359375 -17.1875 C 24.953125 -16.914062 24.328125 -16.675781 23.484375 -16.46875 C 22.640625 -16.257812 21.738281 -16.078125 20.78125 -15.921875 C 19.820312 -15.773438 18.960938 -15.644531 18.203125 -15.53125 C 16.398438 -15.269531 14.945312 -14.757812 13.84375 -14 C 12.738281 -13.25 12.1875 -12.148438 12.1875 -10.703125 C 12.1875 -9.285156 12.695312 -8.210938 13.71875 -7.484375 C 14.75 -6.765625 16.050781 -6.40625 17.625 -6.40625 Z M 17.625 -6.40625 "/></g></g></g><g fill="#04a491" fill-opacity="1"><g transform="translate(305.349854, 91.549985)"><g><path d="M 4.109375 0 L 4.109375 -37.09375 L 14.078125 -37.09375 L 14.078125 -30.625 L 14.46875 -30.625 C 15.144531 -32.925781 16.273438 -34.664062 17.859375 -35.84375 C 19.441406 -37.03125 21.28125 -37.625 23.375 -37.625 C 24.375 -37.625 25.300781 -37.5 26.15625 -37.25 C 27.007812 -37.007812 27.773438 -36.679688 28.453125 -36.265625 L 25.359375 -27.765625 C 24.867188 -28.003906 24.335938 -28.207031 23.765625 -28.375 C 23.203125 -28.550781 22.566406 -28.640625 21.859375 -28.640625 C 19.773438 -28.640625 18.015625 -27.929688 16.578125 -26.515625 C 15.140625 -25.097656 14.410156 -23.253906 14.390625 -20.984375 L 14.390625 0 Z M 4.109375 0 "/></g></g></g><g fill="#04a491" fill-opacity="1"><g transform="translate(334.492724, 91.549985)"><g><path d="M 10.09375 14.4375 C 8.625 14.4375 7.367188 14.3125 6.328125 14.0625 C 5.296875 13.8125 4.488281 13.5625 3.90625 13.3125 L 6.234375 5.34375 C 8.046875 5.882812 9.578125 6.023438 10.828125 5.765625 C 12.078125 5.515625 13.0625 4.539062 13.78125 2.84375 L 14.46875 1.0625 L 1.15625 -37.09375 L 11.984375 -37.09375 L 19.65625 -9.859375 L 20.046875 -9.859375 L 27.796875 -37.09375 L 38.6875 -37.09375 L 24.203125 4.25 C 23.148438 7.207031 21.476562 9.644531 19.1875 11.5625 C 16.894531 13.476562 13.863281 14.4375 10.09375 14.4375 Z M 10.09375 14.4375 "/></g></g></g></svg>