<svg xmlns="http://www.w3.org/2000/svg" xmlns:xlink="http://www.w3.org/1999/xlink" width="77" height="21" viewBox="0 0 77 21">
    <defs>
        <path id="t5bnpb78fa" d="M0.079 0.173L3.62 0.173 3.62 3.67 0.079 3.67z"/>
        <path id="xtip9pmw4c" d="M0.193 0.156L4.358 0.156 4.358 4.066 0.193 4.066z"/>
        <path id="uj9snkryje" d="M0 0.156L4.166 0.156 4.166 4.066 0 4.066z"/>
    </defs>
    <g fill="none" fill-rule="evenodd">
        <g>
            <g>
                <path fill="#FFF" d="M36.032 20.192c-.55.16-1.261.308-2.131.445-.87.138-1.784.207-2.741.207-.973 0-1.78-.13-2.426-.391-.645-.261-1.157-.627-1.534-1.098-.377-.47-.645-1.031-.805-1.683-.16-.652-.24-1.369-.24-2.151V9.156h3.243v5.974c0 1.043.137 1.796.413 2.26.275.463.79.694 1.544.694.232 0 .479-.01.74-.032s.493-.047.696-.076v-8.82h3.241v11.036zM42.798 18.324c.319 0 .623-.007.914-.022.29-.014.522-.036.696-.065v-2.455c-.13-.03-.327-.058-.588-.087-.26-.03-.5-.044-.717-.044-.305 0-.591.019-.86.055-.268.036-.504.105-.707.206-.203.102-.362.24-.479.413-.115.173-.173.391-.173.652 0 .507.17.858.51 1.053.341.196.809.294 1.404.294m-.26-9.472c.956 0 1.753.108 2.392.326.638.217 1.15.528 1.534.933.384.406.656.9.815 1.478.16.58.24 1.224.24 1.933v6.735c-.465.101-1.11.22-1.936.358-.827.138-1.828.207-3.003.207-.74 0-1.41-.065-2.012-.196-.602-.13-1.12-.344-1.556-.64-.435-.297-.768-.685-1-1.163-.233-.478-.348-1.064-.348-1.76 0-.665.133-1.23.402-1.694.268-.463.627-.833 1.077-1.108.45-.275.964-.474 1.545-.597.58-.123 1.181-.185 1.805-.185.42 0 .794.018 1.121.054.326.037.59.084.794.141v-.304c0-.55-.167-.991-.5-1.325-.334-.333-.914-.5-1.74-.5-.552 0-1.096.04-1.633.12-.536.08-1 .192-1.392.337l-.413-2.607c.188-.058.424-.12.707-.185.282-.065.59-.123.924-.174.334-.05.686-.093 1.055-.13.37-.036.744-.054 1.121-.054M49.803 9.547c.551-.16 1.262-.308 2.132-.445.87-.138 1.784-.207 2.741-.207.971 0 1.78.127 2.425.38.646.254 1.157.612 1.534 1.076.377.463.645 1.014.805 1.65.16.639.24 1.347.24 2.13v6.452h-3.242v-6.062c0-1.042-.138-1.78-.413-2.215-.276-.435-.79-.652-1.544-.652-.233 0-.48.011-.74.033-.261.022-.494.047-.696.076v8.82h-3.242V9.547zM66.336 18.324c.32 0 .623-.007.914-.022.29-.014.522-.036.696-.065v-2.455c-.13-.03-.326-.058-.587-.087-.262-.03-.5-.044-.718-.044-.305 0-.591.019-.86.055-.268.036-.503.105-.706.206-.204.102-.363.24-.479.413-.116.173-.174.391-.174.652 0 .507.17.858.511 1.053.34.196.809.294 1.403.294m-.26-9.472c.957 0 1.754.108 2.392.326.638.217 1.15.528 1.534.933.384.406.656.9.815 1.478.16.58.24 1.224.24 1.933v6.735c-.464.101-1.11.22-1.936.358-.826.138-1.827.207-3.002.207-.74 0-1.41-.065-2.013-.196-.602-.13-1.12-.344-1.555-.64-.435-.297-.77-.685-1-1.163-.233-.478-.349-1.064-.349-1.76 0-.665.134-1.23.403-1.694.268-.463.627-.833 1.076-1.108.45-.275.965-.474 1.545-.597s1.182-.185 1.806-.185c.42 0 .794.018 1.12.054.327.037.591.084.794.141v-.304c0-.55-.167-.991-.5-1.325-.333-.333-.914-.5-1.74-.5-.552 0-1.096.04-1.632.12-.537.08-1 .192-1.393.337l-.413-2.607c.188-.058.424-.12.707-.185s.591-.123.925-.174c.333-.05.685-.093 1.055-.13.37-.036.743-.054 1.12-.054" transform="translate(-755 -30) translate(755.5 30)"/>
                <g transform="translate(-755 -30) translate(755.5 30) translate(72.31 17.16)">
                    <mask id="tbdcs2mv5b" fill="#fff">
                        <use xlink:href="#t5bnpb78fa"/>
                    </mask>
                    <path fill="#FFF" d="M3.62 1.921c0 .57-.181 1.005-.543 1.302-.362.298-.771.447-1.228.447-.457 0-.866-.149-1.228-.447C.26 2.926.08 2.492.08 1.921c0-.57.18-1.004.542-1.302C.983.322 1.392.173 1.85.173c.457 0 .866.149 1.228.446.362.298.543.732.543 1.302" mask="url(#tbdcs2mv5b)"/>
                </g>
                <path fill="#FFF" d="M17.585 6.134H6.392c-.215 0-.388.173-.388.387v2.97c0 .213.173.387.388.387h3.514v10.256c0 .248.2.449.45.449h3.265c.249 0 .45-.2.45-.449V9.878h3.514c.214 0 .388-.174.388-.388V6.521c0-.214-.174-.387-.388-.387M4.805 16.84h-.562V6.582c0-.248-.2-.45-.45-.45H.528c-.248 0-.45.202-.45.45v13.551c0 .248.202.449.45.449h4.277c.266 0 .48-.214.48-.48V17.32c0-.265-.214-.48-.48-.48M23.462 6.134h-3.266c-.248 0-.45.201-.45.449v9.205s-.012.38-.244.683c-.027.038-.06.067-.09.097-.02.019-.04.037-.062.055-.384.268-.97.048-.97.048v3.432c0 .23.156.48.479.48h1.337c2.695 0 3.716-2.198 3.716-3.744V6.583c0-.248-.201-.45-.45-.45" transform="translate(-755 -30) translate(755.5 30)"/>
                <g transform="translate(-755 -30) translate(755.5 30) translate(19.553 .212)">
                    <mask id="8yvol5u7cd" fill="#fff">
                        <use xlink:href="#xtip9pmw4c"/>
                    </mask>
                    <path fill="#FFF" d="M2.276 4.066c-1.389 0-2.083-.65-2.083-1.955C.193.808.887.156 2.276.156c1.388 0 2.082.652 2.082 1.955 0 1.304-.694 1.955-2.082 1.955" mask="url(#8yvol5u7cd)"/>
                </g>
                <g transform="translate(-755 -30) translate(755.5 30) translate(0 .212)">
                    <mask id="t355o4wgtf" fill="#fff">
                        <use xlink:href="#uj9snkryje"/>
                    </mask>
                    <path fill="#FFF" d="M2.083 4.066C.694 4.066 0 3.416 0 2.111 0 .808.694.156 2.083.156c1.388 0 2.083.652 2.083 1.955 0 1.304-.695 1.955-2.083 1.955" mask="url(#t355o4wgtf)"/>
                </g>
            </g>
        </g>
    </g>
</svg>
